<svg width="30" height="32" viewBox="0 0 30 32" fill="none" xmlns="http://www.w3.org/2000/svg">
<g clip-path="url(#clip0_181_527)">
<path fill-rule="evenodd" clip-rule="evenodd" d="M0 16.1795C0 23.9572 5.28433 30.4246 12.1955 31.7361V20.4373H8.53688V16.0922H12.1955V12.6153C12.1955 8.70433 14.5529 6.53243 17.8872 6.53243C18.9433 6.53243 20.0824 6.70581 21.1385 6.8792V10.8775H19.2689C17.4799 10.8775 17.0738 11.8331 17.0738 13.0507V16.0922H20.9763L20.3263 20.4373H17.0738V31.7361C23.985 30.4246 29.2693 23.9585 29.2693 16.1795C29.2693 7.52712 22.6837 0.448242 14.6346 0.448242C6.58559 0.448242 0 7.52712 0 16.1795Z" fill="#3D445C"/>
</g>
<defs>
<clipPath id="clip0_181_527">
<rect width="29.2693" height="31.2879" fill="white" transform="translate(0 0.448242)"/>
</clipPath>
</defs>
</svg>
