<svg width="30" height="30" viewBox="0 0 30 30" fill="none" xmlns="http://www.w3.org/2000/svg">
<g clip-path="url(#clip0_189_572)">
<rect x="0.489502" y="12.6246" width="17.095" height="16.4193" fill="#7595FD"/>
<path d="M26.132 17.3158C26.132 16.6708 25.5825 16.143 24.9109 16.143H22.4687V18.4886H24.9109C25.5825 18.4886 26.132 17.9609 26.132 17.3158ZM24.9109 20.8342H22.4687V23.1798H24.9109C25.5825 23.1798 26.132 22.6521 26.132 22.007C26.132 21.362 25.5825 20.8342 24.9109 20.8342ZM15.1423 17.3158H12.7002V22.007H15.1423C15.1423 23.2971 16.2413 24.3526 17.5845 24.3526H21.2477V14.9702H17.5845C16.2413 14.9702 15.1423 16.0257 15.1423 17.3158Z" fill="white"/>
<path d="M6.59473 16.1431C6.59473 14.853 7.69369 13.7975 9.03686 13.7975H10.8685C13.2251 13.7975 15.1422 11.9562 15.1422 9.6927C15.1422 7.42919 13.2251 5.58789 10.8685 5.58789H6.59473C5.92314 5.58789 5.37366 6.11565 5.37366 6.76069C5.37366 7.40574 5.92314 7.9335 6.59473 7.9335H10.8685C11.882 7.9335 12.7001 8.71928 12.7001 9.6927C12.7001 10.6661 11.882 11.4519 10.8685 11.4519H9.03686C6.3383 11.4519 4.15259 13.5512 4.15259 16.1431C4.15259 18.735 6.3383 20.8343 9.03686 20.8343H11.479V18.4887H9.03686C7.69369 18.4887 6.59473 17.4332 6.59473 16.1431Z" fill="white"/>
</g>
<defs>
<clipPath id="clip0_189_572">
<rect width="29.3056" height="28.1473" fill="white" transform="translate(0.489502 0.896606)"/>
</clipPath>
</defs>
</svg>
