<svg width="48" height="39" viewBox="0 0 48 39" fill="none" xmlns="http://www.w3.org/2000/svg">
<g clip-path="url(#clip0_189_556)">
<rect x="0.48584" y="16.2711" width="27.4507" height="22.4389" fill="#7595FD"/>
<path d="M37.7227 3.44885H18.1523C15.9739 3.44885 14.2112 4.88975 14.2112 6.67044V15.7053L4.99164 23.1454C4.7154 23.3687 4.52655 23.6541 4.44906 23.9653C4.37157 24.2765 4.40894 24.5995 4.55641 24.8933C4.70389 25.1872 4.95483 25.4386 5.27739 25.6156C5.59994 25.7926 5.97957 25.8874 6.3681 25.8877V33.9016C6.3681 34.3267 6.57468 34.7344 6.94239 35.035C7.31011 35.3355 7.80884 35.5044 8.32887 35.5044H39.7011C40.2211 35.5044 40.7199 35.3355 41.0876 35.035C41.4553 34.7344 41.6619 34.3267 41.6619 33.9016V6.66883C41.6619 4.88975 39.9011 3.44885 37.7227 3.44885ZM21.9013 24.4629V32.2989H10.2896V23.3746L16.1464 18.648L21.9013 23.4611V24.4629V24.4629ZM25.9758 14.6683H22.0542V11.4627H25.9758V14.6683ZM33.8188 27.4905H29.8973V24.285H33.8188V27.4905ZM33.8188 21.0794H29.8973V17.8739H33.8188V21.0794ZM33.8188 14.6683H29.8973V11.4627H33.8188V14.6683Z" fill="#292E3D"/>
<path d="M14.2112 24.2849H18.1327V27.4905H14.2112V24.2849Z" fill="#14171F"/>
</g>
<defs>
<clipPath id="clip0_189_556">
<rect width="47.0584" height="38.4667" fill="white" transform="translate(0.48584 0.243286)"/>
</clipPath>
</defs>
</svg>
