<svg width="422" height="335" viewBox="0 0 422 335" fill="none" xmlns="http://www.w3.org/2000/svg">
<path d="M383.472 106.818C393.631 106.818 403.375 110.016 410.559 115.707C417.743 121.399 421.778 129.118 421.778 137.167V197.865C421.778 205.914 417.743 213.633 410.559 219.325C403.375 225.016 393.631 228.214 383.472 228.214H363.131C358.462 257.551 340.439 284.529 312.446 304.086C284.454 323.643 248.414 334.435 211.092 334.435V304.086C241.571 304.086 270.801 294.494 292.353 277.419C313.904 260.345 326.012 237.187 326.012 213.039V121.993C326.012 97.8455 313.904 74.6873 292.353 57.6127C270.801 40.5381 241.571 30.9457 211.092 30.9457C180.613 30.9457 151.383 40.5381 129.831 57.6127C108.28 74.6873 96.1721 97.8455 96.1721 121.993V228.214H38.7121C28.5526 228.214 18.8092 225.016 11.6253 219.325C4.44138 213.633 0.405518 205.914 0.405518 197.865V137.167C0.405518 129.118 4.44138 121.399 11.6253 115.707C18.8092 110.016 28.5526 106.818 38.7121 106.818H59.053C63.727 77.4842 81.7512 50.5097 109.744 30.956C137.736 11.4022 173.773 0.613068 211.092 0.613068C248.411 0.613068 284.448 11.4022 312.44 30.956C340.433 50.5097 358.457 77.4842 363.131 106.818H383.472ZM129.882 224.951L150.184 199.216C168.439 208.275 189.552 213.067 211.092 213.039C232.632 213.067 253.745 208.275 272 199.216L292.302 224.951C267.963 237.033 239.813 243.423 211.092 243.388C182.371 243.423 154.221 237.033 129.882 224.951Z" fill="#F9995D"/>
</svg>
