<svg width="422" height="334" viewBox="0 0 422 334" fill="none" xmlns="http://www.w3.org/2000/svg">
<path d="M383.472 106.27C393.631 106.27 403.375 109.467 410.559 115.159C417.743 120.85 421.778 128.57 421.778 136.619V197.317C421.778 205.366 417.743 213.085 410.559 218.777C403.375 224.468 393.631 227.666 383.472 227.666H363.131C358.462 257.002 340.439 283.981 312.446 303.538C284.454 323.095 248.414 333.886 211.092 333.887V303.538C241.571 303.538 270.801 293.946 292.353 276.871C313.904 259.796 326.012 236.638 326.012 212.491V121.444C326.012 97.2971 313.904 74.139 292.353 57.0644C270.801 39.9898 241.571 30.3973 211.092 30.3973C180.613 30.3973 151.383 39.9898 129.831 57.0644C108.28 74.139 96.1721 97.2971 96.1721 121.444V227.666H38.7121C28.5526 227.666 18.8092 224.468 11.6253 218.777C4.44138 213.085 0.405518 205.366 0.405518 197.317V136.619C0.405518 128.57 4.44138 120.85 11.6253 115.159C18.8092 109.467 28.5526 106.27 38.7121 106.27H59.053C63.727 76.9359 81.7512 49.9614 109.744 30.4076C137.736 10.8538 173.773 0.0647049 211.092 0.0647049C248.411 0.0647049 284.448 10.8538 312.44 30.4076C340.433 49.9614 358.457 76.9359 363.131 106.27H383.472ZM129.882 224.403L150.184 198.667C168.439 207.727 189.552 212.519 211.092 212.491C232.632 212.519 253.745 207.727 272 198.667L292.302 224.403C267.963 236.484 239.813 242.875 211.092 242.84C182.371 242.875 154.221 236.484 129.882 224.403Z" fill="#F9995D"/>
</svg>
