<svg width="31" height="30" viewBox="0 0 31 30" fill="none" xmlns="http://www.w3.org/2000/svg">
<path d="M14.1482 5.91761H18.779L23.8574 0.892899C24.0009 0.750184 24.1716 0.636909 24.3597 0.559606C24.5478 0.482304 24.7495 0.442505 24.9533 0.442505C25.1571 0.442505 25.3588 0.482304 25.5469 0.559606C25.735 0.636909 25.9057 0.750184 26.0492 0.892899L30.0317 4.83653C30.3192 5.12182 30.4805 5.50773 30.4805 5.90999C30.4805 6.31225 30.3192 6.69817 30.0317 6.98345L26.4969 10.4855H14.1482V13.5308C14.1482 13.9346 13.9856 14.3219 13.6961 14.6075C13.4066 14.893 13.014 15.0534 12.6046 15.0534C12.1953 15.0534 11.8026 14.893 11.5132 14.6075C11.2237 14.3219 11.0611 13.9346 11.0611 13.5308V8.96288C11.0611 8.15523 11.3863 7.38065 11.9653 6.80955C12.5442 6.23845 13.3295 5.91761 14.1482 5.91761ZM4.88674 13.5308V19.6214L1.35194 23.1082C1.06444 23.3935 0.903076 23.7794 0.903076 24.1817C0.903076 24.5839 1.06444 24.9698 1.35194 25.2551L5.33438 29.1988C5.47787 29.3415 5.6486 29.4547 5.8367 29.532C6.0248 29.6094 6.22655 29.6491 6.43032 29.6491C6.63409 29.6491 6.83585 29.6094 7.02395 29.532C7.21205 29.4547 7.38277 29.3415 7.52626 29.1988L14.1482 22.6666H20.3226C20.7319 22.6666 21.1246 22.5062 21.414 22.2207C21.7035 21.9351 21.8661 21.5478 21.8661 21.144V19.6214H23.4097C23.8191 19.6214 24.2117 19.4609 24.5012 19.1754C24.7907 18.8898 24.9533 18.5025 24.9533 18.0987V16.5761H26.4969C26.9063 16.5761 27.2989 16.4157 27.5884 16.1301C27.8778 15.8446 28.0405 15.4573 28.0405 15.0534V13.5308H17.2354V15.0534C17.2354 15.8611 16.9101 16.6357 16.3312 17.2068C15.7522 17.7779 14.967 18.0987 14.1482 18.0987H11.0611C10.2423 18.0987 9.45707 17.7779 8.87811 17.2068C8.29916 16.6357 7.9739 15.8611 7.9739 15.0534V10.4855L4.88674 13.5308Z" fill="#292E3D"/>
</svg>
