<svg width="32" height="23" viewBox="0 0 32 23" fill="none" xmlns="http://www.w3.org/2000/svg">
<path d="M25.5872 16.8111H22.5V15.4487H10.1514V16.8111H7.06422V15.4487H0.889893V22.2605H31.7615V15.4487H25.5872V16.8111ZM28.6744 5.91221H24.0436V3.18749C24.0436 1.68889 22.6544 0.462769 20.9565 0.462769H11.695C9.99702 0.462769 8.6078 1.68889 8.6078 3.18749V5.91221H3.97706C2.27912 5.91221 0.889893 7.13834 0.889893 8.63693V14.0864H7.06422V11.3617H10.1514V14.0864H22.5V11.3617H25.5872V14.0864H31.7615V8.63693C31.7615 7.13834 30.3723 5.91221 28.6744 5.91221ZM20.9565 5.91221H11.695V3.18749H20.9565V5.91221Z" fill="white"/>
</svg>
