<svg width="29" height="31" viewBox="0 0 29 31" fill="none" xmlns="http://www.w3.org/2000/svg">
<path d="M14.0493 0.517334C6.28997 0.517334 0 7.2411 0 15.5355C0 23.8299 6.28997 30.5537 14.0493 30.5537C21.8085 30.5537 28.0985 23.8299 28.0985 15.5355C28.0985 7.2411 21.8085 0.517334 14.0493 0.517334ZM10.6101 21.7602H7.76514V11.9734H10.6101V21.7602ZM9.17007 10.7719C8.2715 10.7719 7.69051 10.0914 7.69051 9.24977C7.69051 8.39092 8.28906 7.73075 9.20665 7.73075C10.1242 7.73075 10.6862 8.39092 10.7038 9.24977C10.7038 10.0914 10.1242 10.7719 9.17007 10.7719ZM21.0007 21.7602H18.1557V16.3365C18.1557 15.074 17.743 14.2167 16.7142 14.2167C15.9283 14.2167 15.4615 14.7971 15.2552 15.3556C15.1791 15.5543 15.16 15.8359 15.16 16.1159V21.7587H12.3136V15.0943C12.3136 13.8726 12.277 12.851 12.239 11.9718H14.7107L14.841 13.3313H14.8981C15.2727 12.693 16.1903 11.7512 17.7255 11.7512C19.5973 11.7512 21.0007 13.0919 21.0007 15.9735V21.7602V21.7602Z" fill="#3D445C"/>
</svg>
