<svg width="32" height="28" viewBox="0 0 32 28" fill="none" xmlns="http://www.w3.org/2000/svg">
<path d="M27.7153 2.1004C26.6091 2.10112 25.5485 2.46019 24.7664 3.09876C23.9842 3.73734 23.5444 4.60322 23.5435 5.5063C23.5435 5.99267 23.6736 6.45451 23.9006 6.87548L20.6382 9.87131C19.5299 9.24677 18.2152 8.91226 16.8685 8.91221C15.6337 8.91221 14.4922 9.20648 13.4993 9.6833L9.70464 6.58666L9.66626 6.61799C9.99333 6.07577 10.1936 5.47224 10.1936 4.82512C10.1936 4.01677 9.89997 3.22658 9.34988 2.55446C8.79979 1.88234 8.01793 1.35849 7.10316 1.04915C6.18839 0.739808 5.18181 0.65887 4.2107 0.816571C3.23959 0.974272 2.34757 1.36353 1.64744 1.93512C0.947309 2.50671 0.470513 3.23496 0.277348 4.02777C0.0841818 4.82059 0.183321 5.64236 0.56223 6.38918C0.941138 7.136 1.5828 7.77431 2.40606 8.22341C3.22933 8.6725 4.19723 8.91221 5.18737 8.91221C5.98002 8.91221 6.7176 8.74872 7.38342 8.4817L7.34504 8.51303L11.1398 11.6097C10.5267 12.4408 10.1998 13.3915 10.1936 14.3616C10.1936 15.7199 10.8277 16.9488 11.8373 17.9052L7.53695 21.4146C7.05496 21.2571 6.54089 21.1753 6.02173 21.1735C3.72221 21.1735 1.84989 22.7007 1.84989 24.5794C1.84989 26.4581 3.72221 27.9853 6.02173 27.9853C8.32125 27.9853 10.1936 26.4581 10.1936 24.5794C10.1936 24.142 10.0834 23.7265 9.89821 23.341L14.6341 19.4746C15.3366 19.6789 16.0809 19.8111 16.8685 19.8111C20.5498 19.8111 23.5435 17.367 23.5435 14.3616C23.5435 13.4952 23.2715 12.6873 22.8293 11.9584L26.362 8.71194C26.7892 8.83183 27.2397 8.91221 27.7153 8.91221C30.0165 8.91221 31.8872 7.385 31.8872 5.5063C31.8872 3.62761 30.0165 2.1004 27.7153 2.1004ZM16.8685 17.0864C15.0279 17.0864 13.5311 15.8643 13.5311 14.3616C13.5311 12.859 15.0279 11.6369 16.8685 11.6369C18.7091 11.6369 20.206 12.859 20.206 14.3616C20.206 15.8643 18.7091 17.0864 16.8685 17.0864Z" fill="white"/>
</svg>
