<svg width="31" height="26" viewBox="0 0 31 26" fill="none" xmlns="http://www.w3.org/2000/svg">
<path fill-rule="evenodd" clip-rule="evenodd" d="M30.1946 12.9122C30.1946 12.553 30.0833 12.2085 29.8853 11.9545C29.6872 11.7005 29.4186 11.5578 29.1385 11.5578L4.2301 11.5578L10.877 3.03538C10.9752 2.90944 11.0531 2.75994 11.1062 2.5954C11.1593 2.43086 11.1867 2.2545 11.1867 2.07641C11.1867 1.89831 11.1593 1.72195 11.1062 1.55741C11.0531 1.39287 10.9752 1.24337 10.877 1.11743C10.7788 0.9915 10.6622 0.891604 10.5339 0.823449C10.4057 0.755294 10.2682 0.720215 10.1293 0.720215C9.99044 0.720215 9.85294 0.755294 9.72465 0.823449C9.59636 0.891604 9.47979 0.9915 9.3816 1.11743L0.933062 11.9533C0.834714 12.0791 0.756686 12.2286 0.703446 12.3931C0.650207 12.5577 0.622802 12.7341 0.622802 12.9122C0.622802 13.0904 0.650207 13.2668 0.703446 13.4314C0.756686 13.5959 0.834714 13.7454 0.933062 13.8712L9.3816 24.7071C9.47979 24.833 9.59636 24.9329 9.72465 25.0011C9.85294 25.0692 9.99044 25.1043 10.1293 25.1043C10.2682 25.1043 10.4057 25.0692 10.5339 25.0011C10.6622 24.9329 10.7788 24.833 10.877 24.7071C10.9752 24.5811 11.0531 24.4316 11.1062 24.2671C11.1593 24.1025 11.1867 23.9262 11.1867 23.7481C11.1867 23.57 11.1593 23.3936 11.1062 23.2291C11.0531 23.0646 10.9752 22.9151 10.877 22.7891L4.2301 14.2667L29.1385 14.2667C29.4186 14.2667 29.6872 14.124 29.8853 13.87C30.0833 13.616 30.1946 13.2715 30.1946 12.9122Z" fill="white"/>
</svg>
