<svg width="28" height="25" viewBox="0 0 28 25" fill="none" xmlns="http://www.w3.org/2000/svg">
<path fill-rule="evenodd" clip-rule="evenodd" d="M0.944914 12.2807C0.944914 12.64 1.04333 12.9845 1.21851 13.2385C1.39369 13.4925 1.63129 13.6352 1.87903 13.6352L23.9111 13.6352L18.0317 22.1576C17.9449 22.2835 17.876 22.4331 17.829 22.5976C17.782 22.7621 17.7578 22.9385 17.7578 23.1166C17.7578 23.2947 17.782 23.471 17.829 23.6356C17.876 23.8001 17.9449 23.9496 18.0317 24.0756C18.1186 24.2015 18.2217 24.3014 18.3352 24.3695C18.4487 24.4377 18.5703 24.4728 18.6931 24.4728C18.8159 24.4728 18.9375 24.4377 19.051 24.3695C19.1645 24.3014 19.2676 24.2015 19.3545 24.0756L26.8274 13.2397C26.9144 13.1139 26.9834 12.9644 27.0305 12.7999C27.0776 12.6353 27.1018 12.4589 27.1018 12.2807C27.1018 12.1026 27.0776 11.9262 27.0305 11.7616C26.9834 11.5971 26.9144 11.4476 26.8274 11.3218L19.3545 0.485927C19.2676 0.359993 19.1645 0.260096 19.051 0.191941C18.9375 0.123786 18.8159 0.0887084 18.6931 0.0887084C18.5703 0.0887084 18.4487 0.123786 18.3352 0.191941C18.2217 0.260096 18.1186 0.359993 18.0317 0.485927C17.9449 0.611861 17.876 0.761365 17.829 0.925906C17.782 1.09045 17.7578 1.2668 17.7578 1.4449C17.7578 1.62299 17.782 1.79935 17.829 1.96389C17.876 2.12843 17.9449 2.27794 18.0317 2.40387L23.9111 10.9263L1.87903 10.9263C1.63129 10.9263 1.39369 11.069 1.21851 11.323C1.04333 11.577 0.944914 11.9215 0.944914 12.2807Z" fill="white"/>
</svg>
