<svg width="19" height="26" viewBox="0 0 19 26" fill="none" xmlns="http://www.w3.org/2000/svg">
<path d="M0.619873 22.2342L1.00577 25.3476L3.50637 23.1879L7.78209 12.5294C6.73246 12.291 5.80631 11.8142 5.04995 11.155L0.619873 22.2342ZM13.6014 11.155C12.845 11.8142 11.9035 12.291 10.8693 12.5294L15.145 23.1879L17.6456 25.3476L18.0469 22.2342L13.6014 11.155V11.155ZM13.8638 7.95749C14.3269 5.7697 12.9377 3.83435 10.8693 3.16118V1.50631C10.8693 0.734976 10.1746 0.103882 9.32567 0.103882C8.4767 0.103882 7.78209 0.734976 7.78209 1.50631V3.16118C5.99154 3.7502 4.69493 5.29287 4.69493 7.11603C4.69493 9.69651 7.25727 11.7441 10.1901 11.2532C12.0115 10.9447 13.5088 9.61236 13.8638 7.95749V7.95749ZM9.32567 8.51846C8.4767 8.51846 7.78209 7.88737 7.78209 7.11603C7.78209 6.3447 8.4767 5.7136 9.32567 5.7136C10.1746 5.7136 10.8693 6.3447 10.8693 7.11603C10.8693 7.88737 10.1746 8.51846 9.32567 8.51846Z" fill="#292E3D"/>
</svg>
