<svg width="29" height="31" viewBox="0 0 29 31" fill="none" xmlns="http://www.w3.org/2000/svg">
<path d="M14.0493 0.517334C6.28997 0.517334 0 7.2411 0 15.5355C0 23.8299 6.28997 30.5537 14.0493 30.5537C21.8085 30.5537 28.0985 23.8299 28.0985 15.5355C28.0985 7.2411 21.8085 0.517334 14.0493 0.517334ZM19.7641 12.8197C19.7699 12.948 19.7714 13.0763 19.7714 13.2014C19.7714 17.1124 16.9894 21.6194 11.8994 21.6194C10.3954 21.6221 8.92269 21.1604 7.65831 20.2897C7.87344 20.3179 8.09442 20.3288 8.31833 20.3288C9.61496 20.3288 10.8077 19.8579 11.7545 19.0632C11.1775 19.0511 10.6184 18.8469 10.1551 18.4789C9.69187 18.111 9.34751 17.5978 9.17007 17.0107C9.58446 17.095 10.0113 17.0773 10.4184 16.9591C9.79211 16.8237 9.2289 16.461 8.82426 15.9323C8.41963 15.4037 8.19848 14.7418 8.19833 14.0587V14.0227C8.57151 14.2433 8.99884 14.3779 9.45252 14.3935C8.86537 13.9757 8.44973 13.3339 8.29059 12.5993C8.13145 11.8648 8.24084 11.093 8.59639 10.4418C9.29147 11.3554 10.1583 12.1028 11.1407 12.6356C12.1232 13.1684 13.1993 13.4747 14.2995 13.5346C14.1596 12.9 14.2198 12.2337 14.4708 11.6394C14.7217 11.0451 15.1492 10.556 15.687 10.2483C16.2247 9.94051 16.8425 9.8313 17.4443 9.93759C18.0461 10.0439 18.5982 10.3598 19.0148 10.8361C19.6341 10.7051 20.228 10.4623 20.771 10.118C20.5645 10.8034 20.1324 11.3854 19.5548 11.7559C20.1034 11.6853 20.639 11.5277 21.1441 11.2882C20.7731 11.8825 20.3058 12.4011 19.7641 12.8197V12.8197Z" fill="#3D445C"/>
</svg>
