<svg width="312" height="305" viewBox="0 0 312 305" fill="none" xmlns="http://www.w3.org/2000/svg">
<path d="M311.702 231.002L223.389 144.927L248.371 120.578L188.7 62.419L163.718 86.7683L75.4051 0.692993L0.140137 74.0508L88.4531 160.126L12.7108 233.949V292.108H72.3818L148.124 218.285L236.437 304.36L311.702 231.002V231.002ZM111.049 138.103L45.1718 74.0508L75.4051 44.5836L95.6137 64.2801L76.6781 82.7359L99.1144 104.604L118.05 86.1479L141.123 108.636L111.049 138.103V138.103ZM170.719 196.262L200.953 166.795L224.026 189.283L205.09 207.739L227.526 229.607L246.462 211.151L266.67 230.847L236.437 260.315L170.719 196.262V196.262ZM205.774 45.8709L246.159 6.49338L305.799 64.6213L265.413 103.999L205.774 45.8709Z" fill="#F9995D"/>
</svg>
